# xmcd
#
# Track frame offsets:
#	150
#	22016
#	34542
#	51238
#	68870
#	85367
#	102544
#	115072
#	130484
#	139751
#	156496
#
# Disc length: 2333 seconds
# Revision: 0
# Processed by: cddbd v1.5.2PL0 Copyright (c) Steve Scherf et al.
# Submitted via: dBpowerAMP V12.0
#
DISCID=9e091b0b
DTITLE=Louis Johnson - Old Friend
DYEAR=2010
DGENRE=Country
TTITLE0=Someday
TTITLE1=Old Friend
TTITLE2=Life on the Bayou
TTITLE3=Outskirts of Hell
TTITLE4=Rosary
TTITLE5=I'll Fall Apart
TTITLE6=Is She Your Memory or Mine
TTITLE7=1953
TTITLE8=Some Morning
TTITLE9=I Ain't Sayin' Sorry
TTITLE10=Standing at the Crossroads 
EXTD=
EXTT0=
EXTT1=
EXTT2=
EXTT3=
EXTT4=
EXTT5=
EXTT6=
EXTT7=
EXTT8=
EXTT9=
EXTT10=
PLAYORDER=
